999
dxflib 3.17.0.0
  0
SECTION
  2
HEADER
  9
$ACADVER
  1
AC1015
  9
$HANDSEED
  5
FFFF
  0
ENDSEC
  0
SECTION
  2
TABLES
  0
TABLE
  2
VPORT
  5
8
100
AcDbSymbolTable
 70
1
  0
VPORT
  5
30
100
AcDbSymbolTableRecord
100
AcDbViewportTableRecord
  2
*Active
 70
0
 10
0.0
 20
0.0
 11
1.0
 21
1.0
 12
286.30555555555549
 22
148.5
 13
0.0
 23
0.0
 14
10.0
 24
10.0
 15
10.0
 25
10.0
 16
0.0
 26
0.0
 36
1.0
 17
0.0
 27
0.0
 37
0.0
 40
297.0
 41
1.92798353909465
 42
50.0
 43
0.0
 44
0.0
 50
0.0
 51
0.0
 71
0
 72
100
 73
1
 74
3
 75
1
 76
1
 77
0
 78
0
281
0
 65
1
110
0.0
120
0.0
130
0.0
111
1.0
121
0.0
131
0.0
112
0.0
122
1.0
132
0.0
 79
0
146
0.0
  0
ENDTAB
  0
TABLE
  2
LTYPE
  5
5
100
AcDbSymbolTable
 70
3
  0
LTYPE
  5
14
100
AcDbSymbolTableRecord
100
AcDbLinetypeTableRecord
  2
BYBLOCK
 70
0
  3

 72
65
 73
0
 40
0.0
  0
LTYPE
  5
15
100
AcDbSymbolTableRecord
100
AcDbLinetypeTableRecord
  2
BYLAYER
 70
0
  3

 72
65
 73
0
 40
0.0
  0
LTYPE
  5
16
100
AcDbSymbolTableRecord
100
AcDbLinetypeTableRecord
  2
CONTINUOUS
 70
0
  3
Solid line
 72
65
 73
0
 40
0.0
  0
ENDTAB
  0
TABLE
  2
LAYER
  5
2
100
AcDbSymbolTable
 70
3
  0
LAYER
  5
10
100
AcDbSymbolTableRecord
100
AcDbLayerTableRecord
  2
0
 70
0
 62
250
  6
CONTINUOUS
370
100
390
F
  0
LAYER
  5
31
100
AcDbSymbolTableRecord
100
AcDbLayerTableRecord
  2
mainlayer
 70
0
 62
1
  6
CONTINUOUS
370
100
390
F
  0
LAYER
  5
32
100
AcDbSymbolTableRecord
100
AcDbLayerTableRecord
  2
anotherlayer
 70
0
 62
250
  6
CONTINUOUS
370
100
390
F
  0
ENDTAB
  0
TABLE
  2
STYLE
  5
3
100
AcDbSymbolTable
 70
1
  0
STYLE
  5
33
100
AcDbSymbolTableRecord
100
AcDbTextStyleTableRecord
  2
standard
 70
0
 40
2.5
 41
1.0
 50
0.0
 71
0
 42
2.5
  3

  4

1001
ACAD
1000
txt
1071
0
  0
ENDTAB
  0
TABLE
  2
VIEW
  5
6
100
AcDbSymbolTable
 70
0
  0
ENDTAB
  0
TABLE
  2
UCS
  5
7
100
AcDbSymbolTable
 70
0
  0
ENDTAB
  0
TABLE
  2
APPID
  5
9
100
AcDbSymbolTable
 70
1
  0
APPID
  5
12
100
AcDbSymbolTableRecord
100
AcDbRegAppTableRecord
  2
ACAD
 70
0
  0
ENDTAB
  0
TABLE
  2
DIMSTYLE
  5
A
100
AcDbSymbolTable
 70
1
100
AcDbDimStyleTable
 71
0
  0
DIMSTYLE
105
27
100
AcDbSymbolTableRecord
100
AcDbDimStyleTableRecord
  2
Standard
 41
1.0
 42
1.0
 43
3.75
 44
1.0
 70
0
 73
0
 74
0
 77
1
 78
8
140
1.0
141
2.5
143
0.03937007874016
147
1.0
171
3
172
1
271
2
272
2
274
3
278
44
283
0
284
8
340
0
  0
ENDTAB
  0
TABLE
  2
BLOCK_RECORD
  5
1
100
AcDbSymbolTable
 70
1
  0
BLOCK_RECORD
  5
1F
100
AcDbSymbolTableRecord
100
AcDbBlockTableRecord
  2
*Model_Space
340
22
  0
BLOCK_RECORD
  5
1B
100
AcDbSymbolTableRecord
100
AcDbBlockTableRecord
  2
*Paper_Space
340
1E
  0
BLOCK_RECORD
  5
23
100
AcDbSymbolTableRecord
100
AcDbBlockTableRecord
  2
*Paper_Space0
340
26
  0
BLOCK_RECORD
  5
34
100
AcDbSymbolTableRecord
100
AcDbBlockTableRecord
  2
myblock1
340
0
  0
BLOCK_RECORD
  5
35
100
AcDbSymbolTableRecord
100
AcDbBlockTableRecord
  2
myblock2
340
0
  0
ENDTAB
  0
ENDSEC
  0
SECTION
  2
BLOCKS
  0
BLOCK
  5
20
100
AcDbEntity
  8
0
100
AcDbBlockBegin
  2
*Model_Space
 70
0
 10
0.0
 20
0.0
 30
0.0
  3
*Model_Space
  1

  0
ENDBLK
  5
21
100
AcDbEntity
  8
0
100
AcDbBlockEnd
  0
BLOCK
  5
1C
100
AcDbEntity
 67
1
  8
0
100
AcDbBlockBegin
  2
*Paper_Space
 70
0
 10
0.0
 20
0.0
 30
0.0
  3
*Paper_Space
  1

  0
ENDBLK
  5
1D
100
AcDbEntity
 67
1
  8
0
100
AcDbBlockEnd
  0
BLOCK
  5
24
100
AcDbEntity
  8
0
100
AcDbBlockBegin
  2
*Paper_Space0
 70
0
 10
0.0
 20
0.0
 30
0.0
  3
*Paper_Space0
  1

  0
ENDBLK
  5
25
100
AcDbEntity
  8
0
100
AcDbBlockEnd
  0
BLOCK
  5
36
100
AcDbEntity
  8
0
100
AcDbBlockBegin
  2
myblock1
 70
0
 10
0.0
 20
0.0
 30
0.0
  3
myblock1
  1

  0
ENDBLK
  5
37
100
AcDbEntity
  8
0
100
AcDbBlockEnd
  0
BLOCK
  5
38
100
AcDbEntity
  8
0
100
AcDbBlockBegin
  2
myblock2
 70
0
 10
0.0
 20
0.0
 30
0.0
  3
myblock2
  1

  0
ENDBLK
  5
39
100
AcDbEntity
  8
0
100
AcDbBlockEnd
  0
ENDSEC
  0
SECTION
  2
ENTITIES
  0
LWPOLYLINE
  5
3A
100
AcDbEntity
  8
mainlayer
 62
256
370
-1
 48
1.0
  6
BYLAYER
100
AcDbPolyline
 90
4
 70
1
 10
3500.3191647195276
 20
12251.203419887264
 30
0.0
 10
4500.3178964470671
 20
12252.796072803751
 30
0.0
 10
4499.3623046971752
 20
11652.796833767228
 30
0.0
 10
3499.3635729696357
 20
11651.204180850742
 30
0.0
  0
LINE
  5
3B
100
AcDbEntity
  8
mainlayer
 62
256
370
-1
 48
1.0
  6
BYLAYER
100
AcDbLine
 10
4000.0
 20
12052.0
 30
0.0
 11
4000.0
 21
10552.0
 31
0.0
  0
LINE
  5
3C
100
AcDbEntity
  8
mainlayer
 62
256
370
-1
 48
1.0
  6
BYLAYER
100
AcDbLine
 10
4000.0
 20
10552.0
 30
0.0
 11
2900.0
 21
9452.0
 31
0.0
  0
LINE
  5
3D
100
AcDbEntity
  8
mainlayer
 62
256
370
-1
 48
1.0
  6
BYLAYER
100
AcDbLine
 10
4000.0
 20
10552.0
 30
0.0
 11
4000.0
 21
12052.0
 31
0.0
  0
LINE
  5
3E
100
AcDbEntity
  8
mainlayer
 62
256
370
-1
 48
1.0
  6
BYLAYER
100
AcDbLine
 10
2900.0
 20
9452.0
 30
0.0
 11
1000.0
 21
9452.0
 31
0.0
  0
LINE
  5
3F
100
AcDbEntity
  8
mainlayer
 62
256
370
-1
 48
1.0
  6
BYLAYER
100
AcDbLine
 10
2900.0
 20
9452.0
 30
0.0
 11
4000.0
 21
10552.0
 31
0.0
  0
LINE
  5
40
100
AcDbEntity
  8
mainlayer
 62
256
370
-1
 48
1.0
  6
BYLAYER
100
AcDbLine
 10
-4800.0
 20
-1515.0
 30
0.0
 11
-3700.0
 21
-415.0
 31
0.0
  0
LINE
  5
41
100
AcDbEntity
  8
mainlayer
 62
256
370
-1
 48
1.0
  6
BYLAYER
100
AcDbLine
 10
-3700.0
 20
-415.0
 30
0.0
 11
-3020.0
 21
-415.0
 31
0.0
  0
LINE
  5
42
100
AcDbEntity
  8
mainlayer
 62
256
370
-1
 48
1.0
  6
BYLAYER
100
AcDbLine
 10
-3020.0
 20
-415.0
 30
0.0
 11
-1920.0
 21
695.0
 31
0.0
  0
LWPOLYLINE
  5
43
100
AcDbEntity
  8
mainlayer
 62
256
370
-1
 48
1.0
  6
BYLAYER
100
AcDbPolyline
 90
4
 70
1
 10
1600.3191647195276
 20
12251.203419887264
 30
0.0
 10
2600.3178964470667
 20
12252.796072803751
 30
0.0
 10
2599.3623046971747
 20
11652.796833767228
 30
0.0
 10
1599.3635729696355
 20
11651.204180850742
 30
0.0
  0
LINE
  5
44
100
AcDbEntity
  8
mainlayer
 62
256
370
-1
 48
1.0
  6
BYLAYER
100
AcDbLine
 10
2100.0
 20
12052.0
 30
0.0
 11
2100.0
 21
10552.0
 31
0.0
  0
LINE
  5
45
100
AcDbEntity
  8
mainlayer
 62
256
370
-1
 48
1.0
  6
BYLAYER
100
AcDbLine
 10
2100.0
 20
10552.0
 30
0.0
 11
1000.0
 21
9452.0
 31
0.0
  0
LINE
  5
46
100
AcDbEntity
  8
mainlayer
 62
256
370
-1
 48
1.0
  6
BYLAYER
100
AcDbLine
 10
2100.0
 20
10552.0
 30
0.0
 11
2100.0
 21
12052.0
 31
0.0
  0
LINE
  5
47
100
AcDbEntity
  8
mainlayer
 62
256
370
-1
 48
1.0
  6
BYLAYER
100
AcDbLine
 10
1000.0
 20
9452.0
 30
0.0
 11
780.0
 21
9452.0
 31
0.0
  0
LINE
  5
48
100
AcDbEntity
  8
mainlayer
 62
256
370
-1
 48
1.0
  6
BYLAYER
100
AcDbLine
 10
1000.0
 20
9452.0
 30
0.0
 11
2100.0
 21
10552.0
 31
0.0
  0
LINE
  5
49
100
AcDbEntity
  8
mainlayer
 62
256
370
-1
 48
1.0
  6
BYLAYER
100
AcDbLine
 10
1000.0
 20
9452.0
 30
0.0
 11
2900.0
 21
9452.0
 31
0.0
  0
LINE
  5
4A
100
AcDbEntity
  8
mainlayer
 62
256
370
-1
 48
1.0
  6
BYLAYER
100
AcDbLine
 10
780.0
 20
9452.0
 30
0.0
 11
-320.0
 21
8352.0
 31
0.0
  0
LINE
  5
4B
100
AcDbEntity
  8
mainlayer
 62
256
370
-1
 48
1.0
  6
BYLAYER
100
AcDbLine
 10
780.0
 20
9452.0
 30
0.0
 11
1000.0
 21
9452.0
 31
0.0
  0
LINE
  5
4C
100
AcDbEntity
  8
mainlayer
 62
256
370
-1
 48
1.0
  6
BYLAYER
100
AcDbLine
 10
780.0
 20
9452.0
 30
0.0
 11
-820.0
 21
9452.0
 31
0.0
  0
LINE
  5
4D
100
AcDbEntity
  8
mainlayer
 62
256
370
-1
 48
1.0
  6
BYLAYER
100
AcDbLine
 10
-820.0
 20
9452.0
 30
0.0
 11
-1920.0
 21
10552.0
 31
0.0
  0
LINE
  5
4E
100
AcDbEntity
  8
mainlayer
 62
256
370
-1
 48
1.0
  6
BYLAYER
100
AcDbLine
 10
-320.0
 20
8352.0
 30
0.0
 11
780.0
 21
9452.0
 31
0.0
  0
LINE
  5
4F
100
AcDbEntity
  8
mainlayer
 62
256
370
-1
 48
1.0
  6
BYLAYER
100
AcDbLine
 10
-320.0
 20
8352.0
 30
0.0
 11
-320.0
 21
3732.0
 31
0.0
  0
LINE
  5
50
100
AcDbEntity
  8
mainlayer
 62
256
370
-1
 48
1.0
  6
BYLAYER
100
AcDbLine
 10
-1920.0
 20
10552.0
 30
0.0
 11
-3020.0
 21
11652.0
 31
0.0
  0
LINE
  5
51
100
AcDbEntity
  8
mainlayer
 62
256
370
-1
 48
1.0
  6
BYLAYER
100
AcDbLine
 10
-1920.0
 20
10552.0
 30
0.0
 11
-1920.0
 21
15050.0
 31
0.0
  0
LINE
  5
52
100
AcDbEntity
  8
mainlayer
 62
256
370
-1
 48
1.0
  6
BYLAYER
100
AcDbLine
 10
-1920.0
 20
10552.0
 30
0.0
 11
-1920.0
 21
16550.0
 31
0.0
  0
LINE
  5
53
100
AcDbEntity
  8
mainlayer
 62
256
370
-1
 48
1.0
  6
BYLAYER
100
AcDbLine
 10
-1920.0
 20
10552.0
 30
0.0
 11
-1920.0
 21
18050.0
 31
0.0
  0
LWPOLYLINE
  5
54
100
AcDbEntity
  8
mainlayer
 62
256
370
-1
 48
1.0
  6
BYLAYER
100
AcDbPolyline
 90
4
 70
1
 10
3500.3191647195276
 20
7631.2034198872643
 30
0.0
 10
4500.3178964470671
 20
7632.7960728037506
 30
0.0
 10
4499.3623046971752
 20
7032.7968337672273
 30
0.0
 10
3499.3635729696357
 20
7031.2041808507411
 30
0.0
  0
LINE
  5
55
100
AcDbEntity
  8
mainlayer
 62
256
370
-1
 48
1.0
  6
BYLAYER
100
AcDbLine
 10
4000.0
 20
7432.0
 30
0.0
 11
4000.0
 21
5932.0
 31
0.0
  0
LINE
  5
56
100
AcDbEntity
  8
mainlayer
 62
256
370
-1
 48
1.0
  6
BYLAYER
100
AcDbLine
 10
4000.0
 20
5932.0
 30
0.0
 11
2900.0
 21
4832.0
 31
0.0
  0
LINE
  5
57
100
AcDbEntity
  8
mainlayer
 62
256
370
-1
 48
1.0
  6
BYLAYER
100
AcDbLine
 10
4000.0
 20
5932.0
 30
0.0
 11
4000.0
 21
7432.0
 31
0.0
  0
LINE
  5
58
100
AcDbEntity
  8
mainlayer
 62
256
370
-1
 48
1.0
  6
BYLAYER
100
AcDbLine
 10
2900.0
 20
4832.0
 30
0.0
 11
900.0
 21
4832.0
 31
0.0
  0
LINE
  5
59
100
AcDbEntity
  8
mainlayer
 62
256
370
-1
 48
1.0
  6
BYLAYER
100
AcDbLine
 10
2900.0
 20
4832.0
 30
0.0
 11
4000.0
 21
5932.0
 31
0.0
  0
LWPOLYLINE
  5
5A
100
AcDbEntity
  8
mainlayer
 62
256
370
-1
 48
1.0
  6
BYLAYER
100
AcDbPolyline
 90
4
 70
1
 10
1500.3191647195276
 20
7631.2034198872643
 30
0.0
 10
2500.3178964470667
 20
7632.7960728037506
 30
0.0
 10
2499.3623046971747
 20
7032.7968337672273
 30
0.0
 10
1499.3635729696355
 20
7031.2041808507411
 30
0.0
  0
LINE
  5
5B
100
AcDbEntity
  8
mainlayer
 62
256
370
-1
 48
1.0
  6
BYLAYER
100
AcDbLine
 10
2000.0
 20
7432.0
 30
0.0
 11
2000.0
 21
5932.0
 31
0.0
  0
LINE
  5
5C
100
AcDbEntity
  8
mainlayer
 62
256
370
-1
 48
1.0
  6
BYLAYER
100
AcDbLine
 10
2000.0
 20
5932.0
 30
0.0
 11
900.0
 21
4832.0
 31
0.0
  0
LINE
  5
5D
100
AcDbEntity
  8
mainlayer
 62
256
370
-1
 48
1.0
  6
BYLAYER
100
AcDbLine
 10
2000.0
 20
5932.0
 30
0.0
 11
2000.0
 21
7432.0
 31
0.0
  0
LINE
  5
5E
100
AcDbEntity
  8
mainlayer
 62
256
370
-1
 48
1.0
  6
BYLAYER
100
AcDbLine
 10
900.0
 20
4832.0
 30
0.0
 11
780.0
 21
4832.0
 31
0.0
  0
LINE
  5
5F
100
AcDbEntity
  8
mainlayer
 62
256
370
-1
 48
1.0
  6
BYLAYER
100
AcDbLine
 10
900.0
 20
4832.0
 30
0.0
 11
2000.0
 21
5932.0
 31
0.0
  0
LINE
  5
60
100
AcDbEntity
  8
mainlayer
 62
256
370
-1
 48
1.0
  6
BYLAYER
100
AcDbLine
 10
900.0
 20
4832.0
 30
0.0
 11
2900.0
 21
4832.0
 31
0.0
  0
LINE
  5
61
100
AcDbEntity
  8
mainlayer
 62
256
370
-1
 48
1.0
  6
BYLAYER
100
AcDbLine
 10
780.0
 20
4832.0
 30
0.0
 11
-320.0
 21
3732.0
 31
0.0
  0
LINE
  5
62
100
AcDbEntity
  8
mainlayer
 62
256
370
-1
 48
1.0
  6
BYLAYER
100
AcDbLine
 10
780.0
 20
4832.0
 30
0.0
 11
900.0
 21
4832.0
 31
0.0
  0
LINE
  5
63
100
AcDbEntity
  8
mainlayer
 62
256
370
-1
 48
1.0
  6
BYLAYER
100
AcDbLine
 10
780.0
 20
4832.0
 30
0.0
 11
-820.0
 21
4832.0
 31
0.0
  0
LINE
  5
64
100
AcDbEntity
  8
mainlayer
 62
256
370
-1
 48
1.0
  6
BYLAYER
100
AcDbLine
 10
-820.0
 20
4832.0
 30
0.0
 11
-1920.0
 21
5932.0
 31
0.0
  0
LINE
  5
65
100
AcDbEntity
  8
mainlayer
 62
256
370
-1
 48
1.0
  6
BYLAYER
100
AcDbLine
 10
-320.0
 20
3732.0
 30
0.0
 11
780.0
 21
4832.0
 31
0.0
  0
LINE
  5
66
100
AcDbEntity
  8
mainlayer
 62
256
370
-1
 48
1.0
  6
BYLAYER
100
AcDbLine
 10
-320.0
 20
3732.0
 30
0.0
 11
-320.0
 21
-1505.0
 31
0.0
  0
LINE
  5
67
100
AcDbEntity
  8
mainlayer
 62
256
370
-1
 48
1.0
  6
BYLAYER
100
AcDbLine
 10
-1920.0
 20
5932.0
 30
0.0
 11
-1920.0
 21
10552.0
 31
0.0
  0
LWPOLYLINE
  5
68
100
AcDbEntity
  8
mainlayer
 62
256
370
-1
 48
1.0
  6
BYLAYER
100
AcDbPolyline
 90
4
 70
1
 10
3500.3191647195276
 20
3149.2034198872643
 30
0.0
 10
4500.3178964470671
 20
3150.7960728037515
 30
0.0
 10
4499.3623046971752
 20
2550.7968337672278
 30
0.0
 10
3499.3635729696357
 20
2549.2041808507406
 30
0.0
  0
LINE
  5
69
100
AcDbEntity
  8
mainlayer
 62
256
370
-1
 48
1.0
  6
BYLAYER
100
AcDbLine
 10
4000.0
 20
2950.0
 30
0.0
 11
4000.0
 21
695.0
 31
0.0
  0
LINE
  5
6A
100
AcDbEntity
  8
mainlayer
 62
256
370
-1
 48
1.0
  6
BYLAYER
100
AcDbLine
 10
4000.0
 20
695.0
 30
0.0
 11
2900.0
 21
-405.0
 31
0.0
  0
LINE
  5
6B
100
AcDbEntity
  8
mainlayer
 62
256
370
-1
 48
1.0
  6
BYLAYER
100
AcDbLine
 10
4000.0
 20
695.0
 30
0.0
 11
4000.0
 21
2950.0
 31
0.0
  0
LINE
  5
6C
100
AcDbEntity
  8
mainlayer
 62
256
370
-1
 48
1.0
  6
BYLAYER
100
AcDbLine
 10
2900.0
 20
-405.0
 30
0.0
 11
900.0
 21
-405.0
 31
0.0
  0
LINE
  5
6D
100
AcDbEntity
  8
mainlayer
 62
256
370
-1
 48
1.0
  6
BYLAYER
100
AcDbLine
 10
2900.0
 20
-405.0
 30
0.0
 11
4000.0
 21
695.0
 31
0.0
  0
LINE
  5
6E
100
AcDbEntity
  8
mainlayer
 62
256
370
-1
 48
1.0
  6
BYLAYER
100
AcDbLine
 10
2900.0
 20
-405.0
 30
0.0
 11
4000.0
 21
-1505.0
 31
0.0
  0
LWPOLYLINE
  5
6F
100
AcDbEntity
  8
mainlayer
 62
256
370
-1
 48
1.0
  6
BYLAYER
100
AcDbPolyline
 90
4
 70
1
 10
1500.3191647195276
 20
3149.2034198872643
 30
0.0
 10
2500.3178964470667
 20
3150.7960728037515
 30
0.0
 10
2499.3623046971747
 20
2550.7968337672278
 30
0.0
 10
1499.3635729696355
 20
2549.2041808507406
 30
0.0
  0
LINE
  5
70
100
AcDbEntity
  8
mainlayer
 62
256
370
-1
 48
1.0
  6
BYLAYER
100
AcDbLine
 10
2000.0
 20
2950.0
 30
0.0
 11
2000.0
 21
695.0
 31
0.0
  0
LINE
  5
71
100
AcDbEntity
  8
mainlayer
 62
256
370
-1
 48
1.0
  6
BYLAYER
100
AcDbLine
 10
2000.0
 20
695.0
 30
0.0
 11
900.0
 21
-405.0
 31
0.0
  0
LINE
  5
72
100
AcDbEntity
  8
mainlayer
 62
256
370
-1
 48
1.0
  6
BYLAYER
100
AcDbLine
 10
2000.0
 20
695.0
 30
0.0
 11
2000.0
 21
2950.0
 31
0.0
  0
LINE
  5
73
100
AcDbEntity
  8
mainlayer
 62
256
370
-1
 48
1.0
  6
BYLAYER
100
AcDbLine
 10
900.0
 20
-405.0
 30
0.0
 11
780.0
 21
-405.0
 31
0.0
  0
LINE
  5
74
100
AcDbEntity
  8
mainlayer
 62
256
370
-1
 48
1.0
  6
BYLAYER
100
AcDbLine
 10
900.0
 20
-405.0
 30
0.0
 11
2000.0
 21
695.0
 31
0.0
  0
LINE
  5
75
100
AcDbEntity
  8
mainlayer
 62
256
370
-1
 48
1.0
  6
BYLAYER
100
AcDbLine
 10
900.0
 20
-405.0
 30
0.0
 11
2900.0
 21
-405.0
 31
0.0
  0
LINE
  5
76
100
AcDbEntity
  8
mainlayer
 62
256
370
-1
 48
1.0
  6
BYLAYER
100
AcDbLine
 10
900.0
 20
-405.0
 30
0.0
 11
2000.0
 21
-1505.0
 31
0.0
  0
LINE
  5
77
100
AcDbEntity
  8
mainlayer
 62
256
370
-1
 48
1.0
  6
BYLAYER
100
AcDbLine
 10
780.0
 20
-405.0
 30
0.0
 11
900.0
 21
-405.0
 31
0.0
  0
LINE
  5
78
100
AcDbEntity
  8
mainlayer
 62
256
370
-1
 48
1.0
  6
BYLAYER
100
AcDbLine
 10
780.0
 20
-405.0
 30
0.0
 11
-820.0
 21
-405.0
 31
0.0
  0
LINE
  5
79
100
AcDbEntity
  8
mainlayer
 62
256
370
-1
 48
1.0
  6
BYLAYER
100
AcDbLine
 10
-820.0
 20
-405.0
 30
0.0
 11
-1920.0
 21
695.0
 31
0.0
  0
LINE
  5
7A
100
AcDbEntity
  8
mainlayer
 62
256
370
-1
 48
1.0
  6
BYLAYER
100
AcDbLine
 10
-320.0
 20
-1505.0
 30
0.0
 11
780.0
 21
-405.0
 31
0.0
  0
LINE
  5
7B
100
AcDbEntity
  8
mainlayer
 62
256
370
-1
 48
1.0
  6
BYLAYER
100
AcDbLine
 10
-1920.0
 20
695.0
 30
0.0
 11
-1920.0
 21
5932.0
 31
0.0
  0
LWPOLYLINE
  5
7C
100
AcDbEntity
  8
mainlayer
 62
256
370
-1
 48
1.0
  6
BYLAYER
100
AcDbPolyline
 90
4
 70
1
 10
3500.0
 20
-3960.0
 30
0.0
 10
4500.0
 20
-3960.0
 30
0.0
 10
4500.0
 20
-3360.0
 30
0.0
 10
3500.0
 20
-3360.0
 30
0.0
  0
LINE
  5
7D
100
AcDbEntity
  8
mainlayer
 62
256
370
-1
 48
1.0
  6
BYLAYER
100
AcDbLine
 10
4000.0
 20
-3760.0
 30
0.0
 11
4000.0
 21
-1505.0
 31
0.0
  0
LINE
  5
7E
100
AcDbEntity
  8
mainlayer
 62
256
370
-1
 48
1.0
  6
BYLAYER
100
AcDbLine
 10
4000.0
 20
-1505.0
 30
0.0
 11
2900.0
 21
-405.0
 31
0.0
  0
LINE
  5
7F
100
AcDbEntity
  8
mainlayer
 62
256
370
-1
 48
1.0
  6
BYLAYER
100
AcDbLine
 10
4000.0
 20
-1505.0
 30
0.0
 11
4000.0
 21
-3760.0
 31
0.0
  0
LWPOLYLINE
  5
80
100
AcDbEntity
  8
mainlayer
 62
256
370
-1
 48
1.0
  6
BYLAYER
100
AcDbPolyline
 90
4
 70
1
 10
1500.0
 20
-3960.0
 30
0.0
 10
2500.0
 20
-3960.0
 30
0.0
 10
2500.0
 20
-3360.0
 30
0.0
 10
1500.0
 20
-3360.0
 30
0.0
  0
LINE
  5
81
100
AcDbEntity
  8
mainlayer
 62
256
370
-1
 48
1.0
  6
BYLAYER
100
AcDbLine
 10
2000.0
 20
-3760.0
 30
0.0
 11
2000.0
 21
-1505.0
 31
0.0
  0
LINE
  5
82
100
AcDbEntity
  8
mainlayer
 62
256
370
-1
 48
1.0
  6
BYLAYER
100
AcDbLine
 10
2000.0
 20
-1505.0
 30
0.0
 11
900.0
 21
-405.0
 31
0.0
  0
LINE
  5
83
100
AcDbEntity
  8
mainlayer
 62
256
370
-1
 48
1.0
  6
BYLAYER
100
AcDbLine
 10
2000.0
 20
-1505.0
 30
0.0
 11
2000.0
 21
-3760.0
 31
0.0
  0
LINE
  5
84
100
AcDbEntity
  8
mainlayer
 62
256
370
-1
 48
1.0
  6
BYLAYER
100
AcDbLine
 10
4913.0
 20
16950.0
 30
0.0
 11
780.0
 21
16950.0
 31
0.0
  0
LINE
  5
85
100
AcDbEntity
  8
mainlayer
 62
256
370
-1
 48
1.0
  6
BYLAYER
100
AcDbLine
 10
780.0
 20
16950.0
 30
0.0
 11
4913.0
 21
16950.0
 31
0.0
  0
LINE
  5
86
100
AcDbEntity
  8
mainlayer
 62
256
370
-1
 48
1.0
  6
BYLAYER
100
AcDbLine
 10
780.0
 20
16950.0
 30
0.0
 11
-320.0
 21
15850.0
 31
0.0
  0
LINE
  5
87
100
AcDbEntity
  8
mainlayer
 62
256
370
-1
 48
1.0
  6
BYLAYER
100
AcDbLine
 10
-320.0
 20
15850.0
 30
0.0
 11
-320.0
 21
14350.0
 31
0.0
  0
LINE
  5
88
100
AcDbEntity
  8
mainlayer
 62
256
370
-1
 48
1.0
  6
BYLAYER
100
AcDbLine
 10
-820.0
 20
16950.0
 30
0.0
 11
780.0
 21
16950.0
 31
0.0
  0
LINE
  5
89
100
AcDbEntity
  8
mainlayer
 62
256
370
-1
 48
1.0
  6
BYLAYER
100
AcDbLine
 10
-1920.0
 20
18050.0
 30
0.0
 11
-820.0
 21
16950.0
 31
0.0
  0
LINE
  5
8A
100
AcDbEntity
  8
mainlayer
 62
256
370
-1
 48
1.0
  6
BYLAYER
100
AcDbLine
 10
4910.0
 20
15460.0
 30
0.0
 11
780.0
 21
15450.0
 31
0.0
  0
LINE
  5
8B
100
AcDbEntity
  8
mainlayer
 62
256
370
-1
 48
1.0
  6
BYLAYER
100
AcDbLine
 10
780.0
 20
15450.0
 30
0.0
 11
4910.0
 21
15460.0
 31
0.0
  0
LINE
  5
8C
100
AcDbEntity
  8
mainlayer
 62
256
370
-1
 48
1.0
  6
BYLAYER
100
AcDbLine
 10
780.0
 20
15450.0
 30
0.0
 11
-320.0
 21
14350.0
 31
0.0
  0
LINE
  5
8D
100
AcDbEntity
  8
mainlayer
 62
256
370
-1
 48
1.0
  6
BYLAYER
100
AcDbLine
 10
-320.0
 20
14350.0
 30
0.0
 11
-320.0
 21
12850.0
 31
0.0
  0
LINE
  5
8E
100
AcDbEntity
  8
mainlayer
 62
256
370
-1
 48
1.0
  6
BYLAYER
100
AcDbLine
 10
-820.0
 20
15450.0
 30
0.0
 11
780.0
 21
15450.0
 31
0.0
  0
LINE
  5
8F
100
AcDbEntity
  8
mainlayer
 62
256
370
-1
 48
1.0
  6
BYLAYER
100
AcDbLine
 10
-1920.0
 20
16550.0
 30
0.0
 11
-820.0
 21
15450.0
 31
0.0
  0
LINE
  5
90
100
AcDbEntity
  8
mainlayer
 62
256
370
-1
 48
1.0
  6
BYLAYER
100
AcDbLine
 10
5079.0
 20
13961.0
 30
0.0
 11
780.0
 21
13950.0
 31
0.0
  0
LINE
  5
91
100
AcDbEntity
  8
mainlayer
 62
256
370
-1
 48
1.0
  6
BYLAYER
100
AcDbLine
 10
780.0
 20
13950.0
 30
0.0
 11
5079.0
 21
13961.0
 31
0.0
  0
LINE
  5
92
100
AcDbEntity
  8
mainlayer
 62
256
370
-1
 48
1.0
  6
BYLAYER
100
AcDbLine
 10
780.0
 20
13950.0
 30
0.0
 11
-320.0
 21
12850.0
 31
0.0
  0
LINE
  5
93
100
AcDbEntity
  8
mainlayer
 62
256
370
-1
 48
1.0
  6
BYLAYER
100
AcDbLine
 10
-320.0
 20
12850.0
 30
0.0
 11
-320.0
 21
8352.0
 31
0.0
  0
LINE
  5
94
100
AcDbEntity
  8
mainlayer
 62
256
370
-1
 48
1.0
  6
BYLAYER
100
AcDbLine
 10
-820.0
 20
13950.0
 30
0.0
 11
780.0
 21
13950.0
 31
0.0
  0
LINE
  5
95
100
AcDbEntity
  8
mainlayer
 62
256
370
-1
 48
1.0
  6
BYLAYER
100
AcDbLine
 10
-1920.0
 20
15050.0
 30
0.0
 11
-820.0
 21
13950.0
 31
0.0
  0
ENDSEC
  0
SECTION
  2
OBJECTS
  0
DICTIONARY
  5
C
100
AcDbDictionary
280
0
281
1
  3
ACAD_GROUP
350
D
  3
ACAD_LAYOUT
350
1A
  3
ACAD_MLINESTYLE
350
17
  3
ACAD_PLOTSETTINGS
350
19
  3
ACAD_PLOTSTYLENAME
350
E
  3
AcDbVariableDictionary
350
96
  0
DICTIONARY
  5
D
100
AcDbDictionary
280
0
281
1
  0
ACDBDICTIONARYWDFLT
  5
E
100
AcDbDictionary
281
1
  3
Normal
350
F
100
AcDbDictionaryWithDefault
340
F
  0
ACDBPLACEHOLDER
  5
F
  0
DICTIONARY
  5
17
100
AcDbDictionary
280
0
281
1
  3
Standard
350
18
  0
MLINESTYLE
  5
18
100
AcDbMlineStyle
  2
STANDARD
 70
0
  3

 62
256
 51
90.0
 52
90.0
 71
2
 49
0.5
 62
256
  6
BYLAYER
 49
-0.5
 62
256
  6
BYLAYER
  0
DICTIONARY
  5
19
100
AcDbDictionary
280
0
281
1
  0
DICTIONARY
  5
1A
100
AcDbDictionary
281
1
  3
Layout1
350
1E
  3
Layout2
350
26
  3
Model
350
22
  0
LAYOUT
  5
1E
100
AcDbPlotSettings
  1

  2
none_device
  4

  6

 40
0.0
 41
0.0
 42
0.0
 43
0.0
 44
0.0
 45
0.0
 46
0.0
 47
0.0
 48
0.0
 49
0.0
140
0.0
141
0.0
142
1.0
143
1.0
 70
688
 72
0
 73
0
 74
5
  7

 75
16
147
1.0
148
0.0
149
0.0
100
AcDbLayout
  1
Layout1
 70
1
 71
1
 10
0.0
 20
0.0
 11
420.0
 21
297.0
 12
0.0
 22
0.0
 32
0.0
 14
100000000000000000000.0
 24
100000000000000000000.0
 34
100000000000000000000.0
 15
-100000000000000000000.0
 25
-100000000000000000000.0
 35
-100000000000000000000.0
146
0.0
 13
0.0
 23
0.0
 33
0.0
 16
1.0
 26
0.0
 36
0.0
 17
0.0
 27
1.0
 37
0.0
 76
0
330
1B
  0
LAYOUT
  5
22
100
AcDbPlotSettings
  1

  2
none_device
  4

  6

 40
0.0
 41
0.0
 42
0.0
 43
0.0
 44
0.0
 45
0.0
 46
0.0
 47
0.0
 48
0.0
 49
0.0
140
0.0
141
0.0
142
1.0
143
1.0
 70
1712
 72
0
 73
0
 74
0
  7

 75
0
147
1.0
148
0.0
149
0.0
100
AcDbLayout
  1
Model
 70
1
 71
0
 10
0.0
 20
0.0
 11
12.0
 21
9.0
 12
0.0
 22
0.0
 32
0.0
 14
0.0
 24
0.0
 34
0.0
 15
0.0
 25
0.0
 35
0.0
146
0.0
 13
0.0
 23
0.0
 33
0.0
 16
1.0
 26
0.0
 36
0.0
 17
0.0
 27
1.0
 37
0.0
 76
0
330
1F
  0
LAYOUT
  5
26
100
AcDbPlotSettings
  1

  2
none_device
  4

  6

 40
0.0
 41
0.0
 42
0.0
 43
0.0
 44
0.0
 45
0.0
 46
0.0
 47
0.0
 48
0.0
 49
0.0
140
0.0
141
0.0
142
1.0
143
1.0
 70
688
 72
0
 73
0
 74
5
  7

 75
16
147
1.0
148
0.0
149
0.0
100
AcDbLayout
  1
Layout2
 70
1
 71
2
 10
0.0
 20
0.0
 11
12.0
 21
9.0
 12
0.0
 22
0.0
 32
0.0
 14
0.0
 24
0.0
 34
0.0
 15
0.0
 25
0.0
 35
0.0
146
0.0
 13
0.0
 23
0.0
 33
0.0
 16
1.0
 26
0.0
 36
0.0
 17
0.0
 27
1.0
 37
0.0
 76
0
330
23
  0
DICTIONARY
  5
96
100
AcDbDictionary
281
1
  3
DIMASSOC
350
98
  3
HIDETEXT
350
97
  0
DICTIONARYVAR
  5
97
100
DictionaryVariables
280
0
  1
2
  0
DICTIONARYVAR
  5
98
100
DictionaryVariables
280
0
  1
1
  0
ENDSEC
  0
EOF
